<?xml version="1.0" encoding="UTF-8" standalone="no"?>
<svg
   xmlns:dc="http://purl.org/dc/elements/1.1/"
   xmlns:cc="http://creativecommons.org/ns#"
   xmlns:rdf="http://www.w3.org/1999/02/22-rdf-syntax-ns#"
   xmlns:svg="http://www.w3.org/2000/svg"
   xmlns="http://www.w3.org/2000/svg"
   xmlns:sodipodi="http://sodipodi.sourceforge.net/DTD/sodipodi-0.dtd"
   xmlns:inkscape="http://www.inkscape.org/namespaces/inkscape"
   width="500mm"
   height="500mm"
   viewBox="0 0 500 500"
   version="1.1"
   id="svg8"
   inkscape:version="1.0.1 (3bc2e813f5, 2020-09-07)"
   sodipodi:docname="KOTS.svg">
  <defs
     id="defs2" />
  <sodipodi:namedview
     id="base"
     pagecolor="#ffffff"
     bordercolor="#666666"
     borderopacity="1.0"
     inkscape:pageopacity="0.0"
     inkscape:pageshadow="2"
     inkscape:zoom="0.24748737"
     inkscape:cx="314.57966"
     inkscape:cy="524.11994"
     inkscape:document-units="mm"
     inkscape:current-layer="layer1"
     inkscape:document-rotation="0"
     showgrid="false"
     inkscape:pagecheckerboard="true"
     fit-margin-top="0"
     fit-margin-left="0"
     fit-margin-right="0"
     fit-margin-bottom="0"
     inkscape:window-width="1920"
     inkscape:window-height="1001"
     inkscape:window-x="-9"
     inkscape:window-y="-9"
     inkscape:window-maximized="1" />
  <metadata
     id="metadata5">
    <rdf:RDF>
      <cc:Work
         rdf:about="">
        <dc:format>image/svg+xml</dc:format>
        <dc:type
           rdf:resource="http://purl.org/dc/dcmitype/StillImage" />
        <dc:title></dc:title>
      </cc:Work>
    </rdf:RDF>
  </metadata>
  <g
     inkscape:label="Calque 1"
     inkscape:groupmode="layer"
     id="layer1"
     transform="translate(142.69315,-49.875092)">
    <circle
       style="fill:#000000;fill-opacity:1;stroke-width:0.0577963"
       id="path881"
       cx="107.30685"
       cy="299.87509"
       r="250" />
    <circle
       style="fill:#6f0000;fill-opacity:1;stroke-width:0.0610386"
       id="path883"
       cx="107.71517"
       cy="300.86066"
       r="225.34525" />
    <path
       style="fill:#f0d000;fill-opacity:1;stroke:#000000;stroke-width:7.565;stroke-linecap:butt;stroke-linejoin:miter;stroke-miterlimit:4;stroke-dasharray:none;stroke-opacity:1"
       d="m 43.011726,219.26419 c 25.39687,5.1861 81.642864,2.93996 122.464294,0 7.85702,-0.56586 9.4445,-57.98506 18.52083,-85.80062 1.53972,-4.71865 5.0613,-8.86051 4.53572,-13.79611 -0.61108,-5.73849 -4.00007,-11.80086 -9.26042,-14.17413 -4.95965,-2.2376 -11.31799,-1.35439 -15.68601,1.88989 -3.49354,2.59477 -4.58688,7.75578 -4.91369,12.09524 -0.24326,3.2301 4.90917,7.57427 2.26785,9.44941 l -24.75744,17.5759 -20.7697,-19.70456 c -2.10424,-1.99634 2.26336,-5.8508 1.37271,-8.61123 -1.48077,-4.58942 -4.01856,-9.55089 -8.3384,-11.69433 -3.28079,-1.62789 -8.558524,-2.74614 -11.952114,-1.36879 -3.97612,1.61379 -9.57062,7.26077 -10.70747,11.39858 -1.45594,5.29921 4.21702,12.00351 4.21702,12.00351 -0.61301,8.07267 -11.08544,19.67769 -11.08544,19.67769 -6.4656,-2.59336 -16.41677,-10.42538 -20.03274,-12.85118 -3.13886,-2.10573 1.67958,-7.95319 0,-11.33927 -1.758,-3.54418 -5.59149,-6.30502 -9.4494,-7.18156 -4.26488,-0.96901 -9.34825,0.0271 -12.85119,2.64583 -3.43099,2.56489 -5.88606,7.0586 -6.04762,11.33928 -0.12979,3.43877 2.65401,6.35411 4.15773,9.4494 0.93595,1.92655 2.03037,3.77211 3.02381,5.66965 4.90601,9.37077 -0.22674,72.20053 5.29167,73.3274 z"
       id="path885"
       sodipodi:nodetypes="sssssssscsssssssssssssss" />
    <path
       style="fill:#f0d000;fill-opacity:1;stroke:#000000;stroke-width:6.965;stroke-linecap:butt;stroke-linejoin:miter;stroke-miterlimit:4;stroke-dasharray:none;stroke-opacity:1"
       d="m 62.988109,340.88439 c 0,0 -10.439883,25.18724 -21.349137,30.37701 -7.24455,3.44639 -16.833634,2.69444 -24.054257,-0.80181 -5.461978,-2.6447 -10.575344,-7.94615 -11.759859,-13.89801 -5.451525,-27.39239 -0.189351,-52.44677 0.801809,-78.30998 0.421687,-11.00344 18.644016,-26.83766 18.644016,-26.83766 0,0 3.011025,-11.03643 7.281128,-14.05457 8.164101,-5.77045 21.084866,-6.52279 29.934186,-1.87089 6.437435,3.38402 11.22532,18.70887 11.22532,18.70887 23.727484,-0.5356 52.226475,-1.02939 73.766385,-0.80182 0,0 4.00702,-13.74793 9.62171,-17.10523 7.87717,-4.71015 19.44079,-4.87276 27.52876,-0.53454 5.11817,2.74528 9.35443,14.69982 9.35443,14.69982 0,0 15.59204,12.98404 16.83798,22.18336 3.48318,25.71782 6.58843,52.0168 4.27631,79.64632 -0.58748,7.02032 -5.15831,14.32635 -11.22532,17.90706 -5.53263,3.26532 -16.13931,3.51892 -22.07822,1.06908 -12.18814,-5.02769 -23.62487,-29.39965 -23.62487,-29.39965 0,0 -18.39744,4.39439 -27.55562,1.33635 -6.78917,-2.267 -13.44732,-13.83873 -13.44732,-13.83873 l -14.43255,-0.12414 c 0,0 -5.873314,11.21485 -16.921828,15.12366 -8.136494,2.87857 -22.823053,-3.4745 -22.823053,-3.4745 z"
       id="path887"
       sodipodi:nodetypes="csssscsssssscsssscsccsc" />
    <ellipse
       style="fill:#6f0000;fill-opacity:1;stroke:#000000;stroke-width:7.45261;stroke-miterlimit:4;stroke-dasharray:none;stroke-opacity:1"
       id="path915"
       cx="77.616028"
       cy="319.26361"
       rx="11.627578"
       ry="11.273695" />
    <ellipse
       style="fill:#6f0000;fill-opacity:1;stroke:#000000;stroke-width:7.4526;stroke-miterlimit:4;stroke-dasharray:none;stroke-opacity:1"
       id="path915-4"
       cx="142.18739"
       cy="317.84341"
       rx="11.627578"
       ry="11.273695" />
    <ellipse
       style="fill:#000000;fill-opacity:1;stroke:#000000;stroke-width:5.91733;stroke-miterlimit:4;stroke-dasharray:none;stroke-opacity:1"
       id="path932"
       cx="171.05742"
       cy="266.00159"
       rx="4.9387035"
       ry="4.5413365" />
    <ellipse
       style="fill:#000000;fill-opacity:1;stroke:#000000;stroke-width:5.91733;stroke-miterlimit:4;stroke-dasharray:none;stroke-opacity:1"
       id="path932-3"
       cx="153.27907"
       cy="281.62839"
       rx="4.9387035"
       ry="4.5413365" />
    <ellipse
       style="fill:#000000;fill-opacity:1;stroke:#000000;stroke-width:5.91733;stroke-miterlimit:4;stroke-dasharray:none;stroke-opacity:1"
       id="path932-0"
       cx="171.58704"
       cy="297.53091"
       rx="4.9387035"
       ry="4.5413365" />
    <ellipse
       style="fill:#000000;fill-opacity:1;stroke:#000000;stroke-width:5.91733;stroke-miterlimit:4;stroke-dasharray:none;stroke-opacity:1"
       id="path932-6"
       cx="189.76137"
       cy="281.22748"
       rx="4.9387035"
       ry="4.5413365" />
    <rect
       style="fill:#000000;fill-opacity:1;stroke:#000000;stroke-width:4.33856;stroke-miterlimit:4;stroke-dasharray:none;stroke-opacity:1"
       id="rect961"
       width="7.4918122"
       height="3.8291485"
       x="85.379379"
       y="279.16782"
       ry="0" />
    <path
       style="fill:#000000;fill-opacity:1;stroke:#000000;stroke-width:0.264583px;stroke-linecap:butt;stroke-linejoin:miter;stroke-opacity:1"
       d="m 34.383316,275.76536 -0.220023,-9.18977 h 12.160764 l 0.02293,9.2208 c 0,0 -3.768244,4.99102 -5.966317,5.13208 -2.11382,0.13565 -5.997352,-5.16311 -5.997352,-5.16311 z"
       id="path965"
       sodipodi:nodetypes="ccccsc"
       inkscape:transform-center-x="1.6878175"
       inkscape:transform-center-y="-50.296764" />
    <path
       style="fill:#000000;fill-opacity:1;stroke:#000000;stroke-width:0.264583px;stroke-linecap:butt;stroke-linejoin:miter;stroke-opacity:1"
       d="m 48.994898,278.87772 9.189976,-0.21123 -0.01164,12.16075 -9.220818,0.0141 c 0,0 -4.987412,-3.77302 -5.126369,-5.97122 -0.133628,-2.11395 5.168846,-5.99241 5.168846,-5.99241 z"
       id="path965-2"
       sodipodi:nodetypes="ccccsc"
       inkscape:transform-center-x="-9.0612608"
       inkscape:transform-center-y="-39.296159" />
    <path
       style="fill:#000000;fill-opacity:1;stroke:#000000;stroke-width:0.264583px;stroke-linecap:butt;stroke-linejoin:miter;stroke-opacity:1"
       d="m 31.929423,290.60967 -9.188504,0.26773 -0.06313,-12.1606 9.220557,-0.0708 c 0,0 5.010516,3.74228 5.162986,5.93959 0.146622,2.11309 -5.131905,6.02407 -5.131905,6.02407 z"
       id="path965-6"
       sodipodi:nodetypes="ccccsc"
       inkscape:transform-center-x="12.071901"
       inkscape:transform-center-y="-39.288374" />
    <path
       style="fill:#000000;fill-opacity:1;stroke:#000000;stroke-width:0.264583px;stroke-linecap:butt;stroke-linejoin:miter;stroke-opacity:1"
       d="m 46.040691,293.67727 0.249315,9.18902 -12.160701,0.0388 -0.05232,-9.22068 c 0,0 3.752314,-5.00301 5.949927,-5.15108 2.113376,-0.14238 6.013778,5.14397 6.013778,5.14397 z"
       id="path965-29"
       sodipodi:nodetypes="ccccsc"
       inkscape:transform-center-x="1.7594623"
       inkscape:transform-center-y="-28.332277" />
    <path
       style="fill:#000000;fill-opacity:1;stroke:#000000;stroke-width:0.264583px;stroke-linecap:butt;stroke-linejoin:miter;stroke-opacity:1"
       d="m 124.42903,285.23683 0.13363,-6.81537 10.02261,3.60814 z"
       id="path994" />
    <ellipse
       style="fill:#000000;fill-opacity:1;stroke:#000000;stroke-width:5.60846;stroke-miterlimit:4;stroke-dasharray:none;stroke-opacity:1"
       id="path996"
       cx="108.29082"
       cy="511.22144"
       rx="3.1957705"
       ry="3.34795" />
    <ellipse
       style="fill:#000000;fill-opacity:1;stroke:#000000;stroke-width:5.60845;stroke-miterlimit:4;stroke-dasharray:none;stroke-opacity:1"
       id="path996-2"
       cx="-19.243408"
       cy="470.39435"
       rx="3.1957705"
       ry="3.34795" />
    <ellipse
       style="fill:#000000;fill-opacity:1;stroke:#000000;stroke-width:5.60845;stroke-miterlimit:4;stroke-dasharray:none;stroke-opacity:1"
       id="path996-8"
       cx="236.26627"
       cy="467.18713"
       rx="3.1957705"
       ry="3.34795" />
    <path
       style="fill:#f0d000;fill-opacity:1;stroke:#000000;stroke-width:5.5;stroke-linecap:butt;stroke-linejoin:miter;stroke-miterlimit:4;stroke-dasharray:none;stroke-opacity:1"
       d="m -94.76592,403.22317 59.601099,-63.34288 24.32153,23.25245 -22.45064,26.45969 12.56167,11.75986 24.0542496,-25.92515 24.5887994,22.98518 -22.1833693,25.92514 -6.6817401,-5.87992 -12.0271296,13.0962 0.0481,0.0641 5.5645496,7.4194 -21.9160996,24.05426 -25.65787,-24.05426 22.45064,-24.05426 -13.09621,-13.09621 -22.98518,25.12334 z"
       id="path1019"
       sodipodi:nodetypes="cccccccccccccccccc" />
    <path
       style="fill:#f0d000;fill-opacity:1;stroke:#000000;stroke-width:5.5;stroke-linecap:butt;stroke-linejoin:miter;stroke-miterlimit:4;stroke-dasharray:none;stroke-opacity:1"
       d="m 5.5382007,483.00594 19.4648193,-66.31527 8.363636,2.12472 2.138157,-7.10556 66.126287,18.53331 -2.248875,8.72818 8.552635,2.6727 -18.252616,66.7391 -9.276152,-2.05988 -2.151586,7.07315 -66.269412,-19.63481 2.014018,-7.88052 z"
       id="path1021"
       sodipodi:nodetypes="ccccccccccccc" />
    <path
       style="fill:#f0d000;fill-opacity:1;stroke:#000000;stroke-width:5.5;stroke-linecap:butt;stroke-linejoin:miter;stroke-miterlimit:4;stroke-dasharray:none;stroke-opacity:1"
       d="m 157.81428,507.63329 34.20685,-8.69345 -15.11905,-66.33483 23.62351,-6.42559 -4.91369,-18.14286 -82.96578,21.54464 3.59078,16.44197 25.13542,-6.23661 z"
       id="path1023" />
    <path
       style="fill:#f0d000;fill-opacity:1;stroke:#000000;stroke-width:5.5;stroke-linecap:butt;stroke-linejoin:miter;stroke-miterlimit:4;stroke-dasharray:none;stroke-opacity:1"
       d="m 257.61843,334.0029 -55.59207,52.91937 5.07813,6.68173 -6.1472,6.1472 22.45064,24.85607 5.87993,-5.07812 5.87993,6.68174 33.55182,-30.69014 10.80149,13.42833 -36.40008,35.51442 11.58986,12.37268 55.70279,-54.13158 -4.95399,-6.16063 5.34538,-6.1472 -23.47386,-24.55637 -5.92579,6.38204 -6.13377,-6.41446 -30.48215,29.93418 -13.36348,-13.89801 37.67158,-35.7224 z"
       id="path1025"
       sodipodi:nodetypes="ccccccccccccccccccccc" />
    <path
       style="fill:#6f0000;fill-opacity:1;stroke:#000000;stroke-width:5.5;stroke-linecap:butt;stroke-linejoin:miter;stroke-miterlimit:4;stroke-dasharray:none;stroke-opacity:1"
       d="m 40.834468,485.34068 14.805921,-51.46012 17.008929,5.48066 -15.10955,51.03628 z"
       id="path1027"
       sodipodi:nodetypes="ccccc" />
  </g>
</svg>
